<?xml version="1.0" encoding="utf-8"?>
<!-- Generator: Adobe Illustrator 24.3.0, SVG Export Plug-In . SVG Version: 6.00 Build 0)  -->
<svg version="1.1" id="Layer_1" xmlns="http://www.w3.org/2000/svg" xmlns:xlink="http://www.w3.org/1999/xlink" x="0px" y="0px"
	 viewBox="0 0 298.21 63.83" style="enable-background:new 0 0 298.21 63.83;" xml:space="preserve">
<style type="text/css">
	.st0{fill:#333333;}
</style>
<g>
	<path class="st0" d="M32.03,59.16c-1.74,0-3.56-0.45-5.46-1.34c-1.9-0.89-3.99-2.09-6.26-3.6c-2.6-1.75-5.41-3.29-8.41-4.63
		c-2.54-1.13-5.32-1.7-8.36-1.7l-1.65,0.05c-0.1,0-0.27-0.17-0.5-0.51c-0.73-1.03-1.1-2.06-1.1-3.09c0-0.41,0.12-0.81,0.35-1.18
		c1.6-2.37,3.66-4.9,6.18-7.59c2.52-2.69,5.18-5.43,7.99-8.21c3.67-3.64,7.07-7.19,10.19-10.68c3.12-3.48,5.33-6.7,6.64-9.65
		c-1.3,0.31-3.05,0.91-5.26,1.8c-2.8,1.17-5.66,2.09-8.56,2.78c-0.97,0.24-1.85,0.36-2.65,0.36c-3.61,0-5.41-1.87-5.41-5.61
		c0-1.54,0.27-3.43,0.8-5.66c1.97,0.75,4.51,1.13,7.61,1.13c2.6,0,6.21-0.17,10.82-0.51c3.54-0.34,6.86-0.51,9.96-0.51
		c0.93,0,2.59,0.03,4.96,0.1c2.37,0.07,4.32,0.93,5.86,2.57c-3.64,6.96-8.2,13.06-13.67,18.29c-5.48,5.23-10.92,9.9-16.32,14.02
		c-2.8,2.2-5.37,4.29-7.71,6.28c2.77,0.24,5.41,0.8,7.91,1.67c2.5,0.88,4.94,1.84,7.31,2.91c2.67,1.23,5.31,2.26,7.91,3.09
		c1.9,0.58,3.84,0.87,5.81,0.87c0.73,0,1.47-0.03,2.2-0.1c0,1.27-0.92,2.81-2.75,4.63c-2.44,2.33-4.76,3.64-6.96,3.91
		C33.01,59.12,32.53,59.16,32.03,59.16z"/>
	<path class="st0" d="M50.1,49.12h-0.2c-2.84-0.31-4.74-1.61-5.71-3.91c-0.73-1.75-1.1-3.77-1.1-6.07c0-0.82,0.11-2.3,0.33-4.43
		c0.22-2.13,0.86-4.97,1.93-8.54c1.07-3.57,2.2-6.77,3.41-9.62c0.77-1.54,2.02-2.5,3.76-2.88c0.83-0.17,1.69-0.26,2.55-0.26
		c0.93,0,2.13,0.16,3.58,0.49c1.45,0.33,2.8,0.92,4.03,1.78c-1,1.41-2.18,3.57-3.53,6.48c-1.35,2.92-2.6,6-3.76,9.26
		c-1.15,3.26-1.96,6.07-2.43,8.44c-0.17,0.93-0.25,1.68-0.25,2.26c0,1.1,0.3,1.65,0.9,1.65c1,0,2.15-0.74,3.46-2.21
		c1.8-2.13,3.97-5.54,6.51-10.24c0.4-0.86,0.68-1.29,0.85-1.29c0.13,0,0.22,0.19,0.25,0.57c-0.23,2.81-1.15,5.66-2.75,8.54
		c-1.6,2.88-3.48,5.27-5.63,7.15C54.14,48.18,52.07,49.12,50.1,49.12z M60.37,11.51c-0.57,0-1.2-0.05-1.9-0.15
		c-3.67-0.41-5.51-1.73-5.51-3.96c0-1.47,0.57-2.98,1.7-4.53c0.93-1.27,2.5-1.9,4.71-1.9h0.65c2.57,0.31,4.31,0.84,5.21,1.6
		c0.73,0.58,1.1,1.37,1.1,2.37l-0.05,0.72c-0.17,2.54-1.14,4.29-2.9,5.25C62.64,11.31,61.64,11.51,60.37,11.51z"/>
	<path class="st0" d="M72.54,63.07c-0.57,0-1.46-0.08-2.68-0.23c-1.22-0.15-2.56-0.68-4.03-1.57c-1.47-0.89-2.4-2.37-2.8-4.43
		c1.44,1.06,2.79,1.6,4.06,1.6c1.44,0,3.05-0.96,4.86-2.88c1.8-1.92,3.59-5.4,5.36-10.44c-1.74,1.68-3.54,2.52-5.41,2.52
		c-2.67,0-4.77-0.86-6.31-2.57c-2.27-2.5-3.41-6.02-3.41-10.55c0-1.41,0.18-3.22,0.55-5.45c0.37-2.23,1.23-4.66,2.6-7.31
		c1.37-2.64,3.14-4.81,5.31-6.51c2.17-1.7,4.69-2.55,7.56-2.55c2.87,0,4.96,1.34,6.26,4.01c0.6-1.34,1.7-2.25,3.3-2.73
		c0.97-0.31,1.97-0.46,3-0.46c0.67,0,1.61,0.1,2.83,0.31c1.22,0.21,2.38,0.82,3.48,1.85c-0.87,2.5-1.82,5.73-2.85,9.67
		c-1.34,5.04-2.93,10.37-4.78,15.98c-1.85,5.61-4.09,10.47-6.71,14.59c-2.62,4.12-5.73,6.48-9.34,7.1
		C73.19,63.05,72.9,63.07,72.54,63.07z M74.69,43.77c0.97,0,2.11-1.4,3.43-4.19c1.32-2.8,2.45-5.87,3.38-9.24l0.9-4.06
		c0.17-1.13,0.25-2.14,0.25-3.04c0-0.41-0.04-0.98-0.13-1.7c-0.08-0.72-0.49-1.08-1.23-1.08c-1.37,0.24-2.71,1.53-4.03,3.86
		c-1.32,2.33-2.4,4.98-3.23,7.95c-0.83,2.97-1.25,5.55-1.25,7.74v0.26C72.79,42.54,73.42,43.7,74.69,43.77z"/>
	<path class="st0" d="M122.01,49.12h-0.2c-2.9-0.31-4.84-1.65-5.81-4.01c-0.74-1.78-1.1-3.86-1.1-6.23c0-0.82,0.05-1.68,0.15-2.57
		c-1.57,3.57-3.38,6.6-5.43,9.08c-2.05,2.49-4.2,3.73-6.43,3.73c-2.84-0.27-4.77-1.56-5.81-3.86c-0.83-1.89-1.25-4.13-1.25-6.74
		c0-0.62,0.07-1.93,0.2-3.94c0.13-2.01,0.69-4.8,1.68-8.39c0.98-3.58,2.09-6.8,3.33-9.65c0.73-1.54,1.97-2.5,3.71-2.88
		c0.83-0.17,1.69-0.26,2.55-0.26c0.94,0,2.12,0.16,3.55,0.49c1.44,0.33,2.77,0.92,4.01,1.78c-1,1.41-2.13,3.57-3.38,6.48
		c-1.25,2.92-2.41,6-3.48,9.26c-1.07,3.26-1.79,6.07-2.15,8.44c-0.13,0.82-0.2,1.53-0.2,2.11c0,1.2,0.28,1.8,0.85,1.8
		c2.14,0,5.72-6.38,10.77-19.14c0.47-1.23,0.82-2.11,1.05-2.62c0.6-1.68,1.22-3.28,1.85-4.78c1.07-2.09,3.17-3.14,6.31-3.14
		c0.94,0,2.12,0.16,3.56,0.49c1.44,0.33,2.75,0.93,3.96,1.83c-1,1.37-2.15,3.49-3.46,6.35c-1.3,2.86-2.52,5.87-3.66,9.03
		c-1.13,3.16-1.92,5.88-2.35,8.18c-0.17,0.86-0.25,1.56-0.25,2.11c0,1.13,0.32,1.7,0.95,1.7c1.84,0,4.24-2.52,7.21-7.56
		c1.5-2.5,2.57-4.43,3.2-5.76c0.17-0.27,0.3-0.41,0.4-0.41c0.2,0,0.3,0.19,0.3,0.57c-0.27,2.81-1.19,5.66-2.78,8.54
		c-1.58,2.88-3.46,5.27-5.63,7.15C126.05,48.18,123.98,49.12,122.01,49.12z"/>
	<path class="st0" d="M144.54,63.07c-0.57,0-1.46-0.08-2.68-0.23c-1.22-0.15-2.56-0.68-4.03-1.57c-1.47-0.89-2.4-2.37-2.8-4.43
		c1.44,1.06,2.79,1.6,4.06,1.6c1.44,0,3.05-0.96,4.86-2.88c1.8-1.92,3.59-5.4,5.36-10.44c-1.74,1.68-3.54,2.52-5.41,2.52
		c-2.67,0-4.77-0.86-6.31-2.57c-2.27-2.5-3.4-6.02-3.4-10.55c0-1.41,0.18-3.22,0.55-5.45c0.37-2.23,1.23-4.66,2.6-7.31
		c1.37-2.64,3.14-4.81,5.31-6.51c2.17-1.7,4.69-2.55,7.56-2.55c2.87,0,4.96,1.34,6.26,4.01c0.6-1.34,1.7-2.25,3.3-2.73
		c0.97-0.31,1.97-0.46,3-0.46c0.67,0,1.61,0.1,2.83,0.31c1.22,0.21,2.38,0.82,3.48,1.85c-0.87,2.5-1.82,5.73-2.85,9.67
		c-1.34,5.04-2.93,10.37-4.78,15.98c-1.85,5.61-4.09,10.47-6.71,14.59s-5.73,6.48-9.34,7.1C145.2,63.05,144.91,63.07,144.54,63.07z
		 M146.7,43.77c0.97,0,2.11-1.4,3.43-4.19s2.45-5.87,3.38-9.24l0.9-4.06c0.17-1.13,0.25-2.14,0.25-3.04c0-0.41-0.04-0.98-0.13-1.7
		s-0.49-1.08-1.23-1.08c-1.37,0.24-2.71,1.53-4.03,3.86c-1.32,2.33-2.4,4.98-3.23,7.95c-0.84,2.97-1.25,5.55-1.25,7.74v0.26
		C144.79,42.54,145.43,43.7,146.7,43.77z"/>
	<path class="st0" d="M175.19,49.38c-0.6,0-1.38-0.2-2.33-0.59c-0.95-0.39-1.68-0.99-2.18-1.78c-1.47-2.47-2.2-5.49-2.2-9.06
		c0-0.14,0.03-1.19,0.07-3.16c0.05-1.97,0.53-4.82,1.45-8.54c0.92-3.72,1.88-6.75,2.88-9.08c0.7-1.58,1.94-2.54,3.71-2.88
		c0.77-0.14,1.55-0.21,2.35-0.21c1.03,0,2.3,0.17,3.81,0.51c1.5,0.34,2.87,0.94,4.11,1.8c-3.17,3.81-5.76,9.36-7.76,16.67l1.4-2.83
		c0.93-1.89,2.19-4.06,3.78-6.53c1.59-2.47,3.39-4.7,5.41-6.69c2.02-1.99,4.15-3.21,6.39-3.65h0.55c1.7,0,2.9,0.74,3.61,2.21
		c0.57,1.23,0.85,2.69,0.85,4.37c0,0.58-0.08,1.65-0.23,3.19c-0.15,1.54-0.76,3.39-1.83,5.53c-1.07,2.14-2.4,3.59-4.01,4.35
		c-0.5,0.24-1,0.36-1.5,0.36c-1.24,0-2.54-0.62-3.91-1.85c1.97-1.54,2.95-3.29,2.95-5.25c0-1.44-0.48-2.21-1.45-2.32
		c-0.84,0-2.2,1.16-4.08,3.47c-1.89,2.31-3.76,5.37-5.61,9.16c-1.85,3.79-3.15,7.88-3.88,12.27
		C176.74,49.21,175.96,49.38,175.19,49.38z"/>
	<path class="st0" d="M227.46,49.12h-0.2c-4.04-0.45-6.28-3.12-6.71-8.03c-1.3,2.09-2.75,3.7-4.36,4.84c-1.6,1.13-3.17,1.7-4.71,1.7
		c-2.7,0-4.82-0.86-6.36-2.57c-2.27-2.47-3.4-6.04-3.4-10.7c0-1.34,0.18-3.11,0.55-5.33c0.37-2.21,1.23-4.64,2.6-7.28
		s3.14-4.81,5.31-6.51c2.17-1.7,4.67-2.55,7.51-2.55c4.37,0,6.88,2.06,7.51,6.17l1-2.32c0.73-1.54,1.97-2.5,3.7-2.88
		c0.83-0.17,1.69-0.26,2.55-0.26c0.93,0,2.12,0.16,3.56,0.49c1.43,0.33,2.77,0.92,4.01,1.78c-1,1.41-2.17,3.57-3.51,6.48
		c-1.33,2.92-2.59,6-3.76,9.26c-1.17,3.26-1.99,6.07-2.45,8.44c-0.17,0.93-0.25,1.68-0.25,2.26c0,1.1,0.3,1.65,0.9,1.65
		c1.94,0,4.49-2.78,7.66-8.34c1.47-2.54,2.39-4.2,2.75-4.99c0.17-0.27,0.3-0.41,0.4-0.41c0.17,0,0.25,0.19,0.25,0.57
		c-0.23,2.81-1.14,5.66-2.73,8.54c-1.59,2.88-3.46,5.27-5.63,7.15C231.5,48.18,229.43,49.12,227.46,49.12z M214.2,43.77
		c1.13-0.1,2.34-1.31,3.63-3.63c1.29-2.31,2.39-5.02,3.33-8.1c0.97-3.29,1.45-6.12,1.45-8.49c0-1.99-0.6-3.02-1.8-3.09
		c-1.1,0.17-2.18,1.04-3.23,2.6c-1.05,1.56-2,3.49-2.85,5.79c-0.85,2.3-1.49,4.58-1.93,6.84c-0.3,1.65-0.45,3.11-0.45,4.37
		c0,0.48,0.05,1.22,0.15,2.21C212.59,43.28,213.16,43.77,214.2,43.77z"/>
	<path class="st0" d="M263.17,49.38c-0.57,0-1.25-0.19-2.05-0.57c-0.8-0.38-1.42-0.98-1.85-1.8c-1.1-1.99-1.65-4.17-1.65-6.53
		c0-2.81,0.5-6.29,1.5-10.45c0.13-0.55,0.25-1.11,0.35-1.7c-2.84,4.43-5.79,9.93-8.86,16.52c-0.9,1.96-1.57,3.29-2,4.01
		c-0.77,0.34-1.54,0.51-2.3,0.51c-0.6,0-1.39-0.19-2.35-0.57c-0.97-0.38-1.7-0.98-2.2-1.8c-1.54-2.78-2.3-5.92-2.3-9.42
		c0-0.24,0.03-1.35,0.08-3.32c0.05-1.97,0.56-4.73,1.53-8.28c0.97-3.55,1.94-6.49,2.91-8.83c0.73-1.58,1.97-2.54,3.7-2.88
		c0.77-0.14,1.55-0.21,2.35-0.21c1.03,0,2.3,0.17,3.81,0.51c1.5,0.34,2.87,0.94,4.11,1.8c-1.24,1.58-2.85,4.51-4.83,8.8
		c-1.99,4.29-3.41,9.14-4.28,14.56l0.55-1.23c1.07-2.57,2.44-5.57,4.11-8.98c1.67-3.41,3.6-6.55,5.78-9.42
		c2.19-2.86,4.56-4.78,7.14-5.74c0.77-0.27,1.55-0.41,2.35-0.41c1.9,0,3.87,0.81,5.91,2.42c-1.27,1.58-2.89,4.51-4.86,8.8
		c-1.97,4.29-3.37,9.14-4.21,14.56l0.15-0.26c0.4-0.82,1.31-2.51,2.73-5.07c1.42-2.56,3.15-5.39,5.18-8.49
		c2.04-3.1,4.18-5.85,6.43-8.23c2.25-2.38,4.43-3.83,6.53-4.35l0.8-0.05c1.7,0,3.22,0.65,4.56,1.96c1,1.03,1.5,2.16,1.5,3.4
		c0,0.65-0.13,1.34-0.4,2.06c-1.4,2.92-2.75,6.11-4.03,9.6c-1.29,3.48-2.21,6.53-2.78,9.13c-0.23,1.06-0.35,1.94-0.35,2.62
		c0,1.13,0.32,1.7,0.95,1.7c1,0,2.15-0.74,3.45-2.21c1.8-2.13,3.97-5.54,6.51-10.24c0.37-0.86,0.65-1.29,0.85-1.29
		c0.17,0,0.25,0.19,0.25,0.57c-0.23,2.81-1.14,5.66-2.73,8.54c-1.59,2.88-3.46,5.27-5.63,7.15c-2.17,1.89-4.24,2.83-6.21,2.83h-0.2
		c-2.77-0.31-4.66-1.6-5.66-3.86c-0.73-1.71-1.1-3.76-1.1-6.12c0-0.72,0.09-2.11,0.28-4.17c0.18-2.06,0.79-4.85,1.83-8.39
		c-3.5,4.97-7.31,11.37-11.42,19.19c-0.8,1.48-1.39,2.5-1.75,3.09C264.55,49.21,263.84,49.38,263.17,49.38z"/>
</g>
</svg>
